
<?xml version="1.0" encoding="utf-8"?>
<!-- Generator: Adobe Illustrator 24.0.3, SVG Export Plug-In . SVG Version: 6.00 Build 0)  -->
<svg version="1.1" id="Layer_1" xmlns="http://www.w3.org/2000/svg" xmlns:xlink="http://www.w3.org/1999/xlink" x="0px" y="0px"
	 viewBox="0 0 351 276" style="enable-background:new 0 0 351 276;" xml:space="preserve">
<style type="text/css">
	
</style>
<g>
	<g>
		<path class="st0" d="M238.08,237.68H122.43c-25.03,0-45.4-20.37-45.4-45.39V76.68c0-25.03,20.37-45.4,45.4-45.4h115.65
			c25.03,0,45.39,20.37,45.39,45.4v115.61C283.47,217.32,263.11,237.68,238.08,237.68z M122.43,48.75
			c-15.4,0-27.93,12.53-27.93,27.93v115.61c0,15.4,12.53,27.93,27.93,27.93h115.65c15.4,0,27.93-12.53,27.93-27.93V76.68
			c0-15.4-12.53-27.93-27.93-27.93H122.43z"/>
	</g>
	<g>
		<path class="st0" d="M180.05,192.4c-3.64,0-7.3-0.34-10.95-1.03c-22.67-4.29-40.79-22.41-45.08-45.08
			c-3.58-18.9,2.29-38.2,15.72-51.62c13.42-13.42,32.72-19.31,51.62-15.72c22.67,4.3,40.79,22.42,45.09,45.08l0,0
			c3.58,18.9-2.29,38.2-15.72,51.62C209.89,186.49,195.24,192.4,180.05,192.4z M180.19,95.36c-10.56,0-20.51,4.06-28.1,11.66
			c-9.48,9.48-13.45,22.6-10.91,36.02c2.97,15.68,15.5,28.21,31.17,31.17c13.42,2.54,26.54-1.43,36.02-10.91
			c9.48-9.47,13.45-22.6,10.91-36.01l0,0c-2.97-15.68-15.5-28.2-31.18-31.18C185.44,95.61,182.8,95.36,180.19,95.36z"/>
	</g>
	<g>
		<path class="st0" d="M235.9,92.68c-1.13,0-2.27-0.11-3.41-0.32c-7.06-1.34-12.7-6.99-14.04-14.05
			c-1.11-5.88,0.72-11.88,4.89-16.06c4.18-4.18,10.19-6,16.06-4.9c7.06,1.34,12.71,6.98,14.05,14.04v0
			c1.12,5.88-0.71,11.89-4.89,16.07C245.19,90.83,240.62,92.68,235.9,92.68z M235.95,64.53c-2.74,0-5.33,1.06-7.29,3.02
			c-2.46,2.46-3.49,5.87-2.83,9.35c0.76,3.99,4.07,7.31,8.07,8.07c3.49,0.66,6.9-0.37,9.36-2.83c2.46-2.46,3.49-5.87,2.83-9.36v0
			c-0.76-3.99-4.08-7.31-8.07-8.07C237.31,64.6,236.63,64.53,235.95,64.53z"/>
	</g>
</g>
</svg>

<?xml version="1.0"?><svg fill="#000000" xmlns="http://www.w3.org/2000/svg"  viewBox="0 0 50 50" width="50px" height="50px">    <path d="M 16 3 C 8.83 3 3 8.83 3 16 L 3 34 C 3 41.17 8.83 47 16 47 L 34 47 C 41.17 47 47 41.17 47 34 L 47 16 C 47 8.83 41.17 3 34 3 L 16 3 z M 37 11 C 38.1 11 39 11.9 39 13 C 39 14.1 38.1 15 37 15 C 35.9 15 35 14.1 35 13 C 35 11.9 35.9 11 37 11 z M 25 14 C 31.07 14 36 18.93 36 25 C 36 31.07 31.07 36 25 36 C 18.93 36 14 31.07 14 25 C 14 18.93 18.93 14 25 14 z M 25 16 C 20.04 16 16 20.04 16 25 C 16 29.96 20.04 34 25 34 C 29.96 34 34 29.96 34 25 C 34 20.04 29.96 16 25 16 z"/></svg>
