<?xml version="1.0" encoding="utf-8"?>
<!-- Generator: Adobe Illustrator 24.0.3, SVG Export Plug-In . SVG Version: 6.00 Build 0)  -->
<svg version="1.1" id="Layer_1" xmlns="http://www.w3.org/2000/svg" xmlns:xlink="http://www.w3.org/1999/xlink" x="0px" y="0px"
	 viewBox="0 0 363 276" style="enable-background:new 0 0 363 276;" xml:space="preserve">
<style type="text/css">
	.st0{fill:#222221;}
</style>
<g>
	<path d="M150.87,100.81c13.32,0,26.31,0,39.95,0c0,5.82,0,11.5,0,17.79c3.85-4.1,6.78-7.88,10.35-10.9
		c19.08-16.19,54.82-13.41,69.54,5.4c7.98,10.2,10.47,22.49,10.73,34.89c0.62,28.84,0.39,57.7,0.48,86.55
		c0,0.47-0.26,0.94-0.47,1.64c-13.69,0-27.35,0-41.62,0c0-2.04,0-3.88,0-5.72c0-20.95,0.11-41.91-0.07-62.86
		c-0.05-5.8-0.52-11.69-1.64-17.37c-1.68-8.5-6.81-14.24-15.76-15.44c-9.71-1.3-18.6,0.22-24.53,9.16
		c-4.37,6.59-5.1,14.15-5.15,21.74c-0.14,21.47-0.1,42.93-0.13,64.4c0,1.87,0,3.74,0,5.97c-14.04,0-27.66,0-41.68,0
		C150.87,191.2,150.87,146.31,150.87,100.81z"/>
	<path d="M123.58,236.23c-14.04,0-27.7,0-41.67,0c0-45.11,0-89.99,0-135.28c13.79,0,27.58,0,41.67,0
		C123.58,145.98,123.58,190.85,123.58,236.23z"/>
	<path d="M102.67,81.84C88.89,81.83,78.28,71.17,78.33,57.4c0.05-13.67,10.86-24.33,24.6-24.25c13.32,0.08,24.13,10.93,24.18,24.25
		C127.15,71.08,116.38,81.85,102.67,81.84z"/>
</g>
</svg>
