<?xml version="1.0" encoding="utf-8"?>
<!-- Generator: Adobe Illustrator 24.0.3, SVG Export Plug-In . SVG Version: 6.00 Build 0)  -->
<svg version="1.1" id="Layer_1" xmlns="http://www.w3.org/2000/svg" xmlns:xlink="http://www.w3.org/1999/xlink" x="0px" y="0px"
	 viewBox="0 0 381 276" style="enable-background:new 0 0 381 276;" xml:space="preserve">
<style type="text/css">
	.st0{fill:#222221;}
</style>
<g>
	<path d="M185.28,46.31c9.97,0.35,19.95,0.59,29.91,1.1c7.46,0.38,14.9,1.01,22.33,1.75c8.2,0.81,16.37,1.84,24.54,2.85
		c4.51,0.56,9.02,1.16,13.23,3.05c11.37,5.11,18.37,13.8,20.89,25.98c1.56,7.56,2.45,15.23,3.21,22.92
		c1.49,15.07,1.93,30.16,1.44,45.29c-0.29,8.85-0.82,17.69-1.95,26.48c-0.82,6.37-1.6,12.75-2.85,19.04
		c-2.87,14.48-14.76,25.61-29.34,27.66c-8.35,1.17-16.71,2.28-25.09,3.13c-8.85,0.9-17.73,1.61-26.61,2.15
		c-15.2,0.92-30.41,1.22-45.63,0.6c-7.05-0.29-14.1-0.6-21.14-1.07c-6.05-0.4-12.09-0.95-18.12-1.59
		c-7.12-0.75-14.23-1.63-21.34-2.54c-3.82-0.49-7.67-0.89-11.32-2.22c-11.52-4.19-19.1-12.19-22.52-23.94
		c-1.09-3.73-1.62-7.65-2.15-11.52c-0.85-6.25-1.59-12.53-2.16-18.81c-0.91-9.95-1.24-19.93-1.21-29.92
		c0.02-9.41,0.4-18.81,1.19-28.18c0.81-9.51,1.89-18.99,3.78-28.34c2.74-13.53,13.92-24.64,27.4-27.14
		c5.09-0.94,10.24-1.54,15.38-2.19c4.92-0.62,9.85-1.18,14.78-1.64c5.62-0.53,11.25-1.03,16.89-1.38c7.43-0.46,14.86-0.84,22.3-1.1
		c4.71-0.16,9.43-0.03,14.14-0.03C185.27,46.57,185.28,46.44,185.28,46.31z M184.11,212.22c8.69-0.25,16.3-0.43,23.9-0.71
		c4.05-0.15,8.09-0.41,12.13-0.7c4.92-0.36,9.84-0.77,14.75-1.23c4.94-0.47,9.87-0.98,14.79-1.58c4.68-0.56,9.33-1.3,14.01-1.87
		c8.33-1.01,14.84-7.1,16.34-15.36c2.24-12.37,3.5-24.84,4.09-37.38c0.52-11.08,0.49-22.17-0.09-33.26
		c-0.63-11.99-1.91-23.9-4-35.73c-1.38-7.8-7.32-13.97-15.14-15.21c-6.72-1.06-13.47-1.92-20.24-2.64
		c-8.25-0.88-16.51-1.71-24.78-2.24c-9.24-0.59-18.5-0.95-27.76-1.16c-12.49-0.28-24.98,0.03-37.44,0.9
		c-8.36,0.59-16.71,1.21-25.04,2.07c-7.81,0.81-15.59,1.88-23.37,2.95c-8.17,1.12-14.39,7.2-15.85,15.27
		c-2.46,13.65-3.76,27.42-4.25,41.27c-0.44,12.44-0.2,24.88,0.76,37.3c0.72,9.35,1.83,18.65,3.5,27.89
		c1.37,7.61,7.18,13.61,14.73,15.07c2.97,0.57,5.99,0.92,9,1.28c6.86,0.83,13.72,1.74,20.61,2.38c7.79,0.72,15.6,1.31,23.42,1.72
		C167.16,211.71,176.18,211.93,184.11,212.22z"/>
	<path d="M152.17,178.93c0-27.63,0-55.11,0-82.73c27.55,13.78,55.02,27.53,82.68,41.36C207.21,151.39,179.72,165.14,152.17,178.93z"
		/>
</g>
</svg>
